<?xml version="1.0" encoding="UTF-8" standalone="no" ?>
<!DOCTYPE svg PUBLIC "-//W3C//DTD SVG 1.1//EN" "http://www.w3.org/Graphics/SVG/1.1/DTD/svg11.dtd">
<svg xmlns="http://www.w3.org/2000/svg" xmlns:xlink="http://www.w3.org/1999/xlink" version="1.1" width="500" height="500" viewBox="0 0 500 500" xml:space="preserve">
<desc>Created with Fabric.js 3.6.3</desc>
<defs>
</defs>
<g transform="matrix(2.7221699776346937 -6.6674e-16 6.6674e-16 2.7221699776346937 274.51728391694667 255.38889627371316)"  >
<path style="stroke: none; stroke-width: 0; stroke-dasharray: none; stroke-linecap: butt; stroke-dashoffset: 0; stroke-linejoin: miter; stroke-miterlimit: 4; fill: rgb(56,37,19); fill-rule: nonzero; opacity: 0.27;"  transform=" translate(-49.9995, -49.9995)" d="M 50 100.083 C 22.383 100.083 -0.084 77.615 -0.084 50 C -0.084 22.383 22.383 -0.084 50 -0.084 c 27.616 0 50.083 22.468 50.083 50.084 C 100.083 77.615 77.615 100.083 50 100.083 z" stroke-linecap="round" />
</g>
<g transform="matrix(2.386776721761702 -5.8459e-16 5.8459e-16 2.386776721761702 274.51728391694667 252.3888962737131)"  >
<path style="stroke: none; stroke-width: 0; stroke-dasharray: none; stroke-linecap: butt; stroke-dashoffset: 0; stroke-linejoin: miter; stroke-miterlimit: 4; fill: rgb(56,37,19); fill-rule: nonzero; opacity: 0.25;"  transform=" translate(-49.9995, -49.9995)" d="M 50 100.083 C 22.383 100.083 -0.084 77.615 -0.084 50 C -0.084 22.383 22.383 -0.084 50 -0.084 c 27.616 0 50.083 22.468 50.083 50.084 C 100.083 77.615 77.615 100.083 50 100.083 z" stroke-linecap="round" />
</g>
<g transform="matrix(2.0954086620351946 -5.1323e-16 5.1323e-16 2.0954086620351946 274.51728391694667 255.38889627371316)"  >
<path style="stroke: none; stroke-width: 0; stroke-dasharray: none; stroke-linecap: butt; stroke-dashoffset: 0; stroke-linejoin: miter; stroke-miterlimit: 4; fill: rgb(56,37,19); fill-rule: nonzero; opacity: 1;"  transform=" translate(-49.9995, -49.9995)" d="M 50 100.083 C 22.383 100.083 -0.084 77.615 -0.084 50 C -0.084 22.383 22.383 -0.084 50 -0.084 c 27.616 0 50.083 22.468 50.083 50.084 C 100.083 77.615 77.615 100.083 50 100.083 z" stroke-linecap="round" />
</g>
<g transform="matrix(0.5 0 0 0.5 279.4392904088263 242)" style=""  ><path fill="#FF530D" opacity="1" d="M-51.25 0.52C-51.25 0.52-34.24-3.26-34.24-19.64C-34.24-35.39-47.47-48.62-75.19-48.62L-121.18-48.62C-123.70-48.62-125.59-46.73-125.59-44.21L-125.59 35.17C-125.59 37.69-123.70 39.58-121.18 39.58L-102.28 39.58C-99.76 39.58-97.87 37.69-97.87 35.17L-97.87 9.34L-81.49 9.34C-74.56 9.34-72.16 11.86-70.15 15.64L-59.44 35.17C-58.05 37.69-56.29 39.58-51.25 39.58L-31.72 39.58C-28.57 39.58-27.56 37.06-28.57 35.17L-39.28 15.64C-45.58 4.30-51.25 1.78-51.25 1.78ZM-97.87-10.82L-97.87-28.46L-75.19-28.46C-67.00-28.46-63.22-24.68-63.22-19.64C-63.22-14.60-67.00-10.82-75.19-10.82Z"/><path fill="#FF530D" opacity="1" d="M51.32 39.58C55.10 39.58 57.49 37.06 58.25 35.17L75.13-6.41L76.39-6.41L76.39 35.17C76.39 37.69 78.28 39.58 80.80 39.58L99.70 39.58C102.22 39.58 104.11 37.69 104.11 35.17L104.11-44.21C104.11-46.73 102.22-48.62 99.70-48.62L73.24-48.62C69.46-48.62 67.07-46.10 66.31-44.21L44.26 9.34L43.00 9.34L20.95-44.21C20.20-46.10 17.80-48.62 14.02-48.62L-12.44-48.62C-14.96-48.62-16.85-46.73-16.85-44.21L-16.85 35.17C-16.85 37.69-14.96 39.58-12.44 39.58L6.46 39.58C8.98 39.58 10.87 37.69 10.87 35.17L10.87-6.41L12.13-6.41L29.14 35.17C29.90 37.06 32.29 39.58 36.07 39.58Z"/></g><g transform="matrix(0.5 0 0 0.5 283.2374558130924 292.5305251262752)" style=""  ><path fill="#ffffff" opacity="0.55" d="M-111.07 10.37L-115.42 10.37L-121.09 1.58L-124.20 1.58L-124.20 10.37L-127.96 10.37L-127.96-11.93L-120.43-11.93Q-118.43-11.93-116.93-11.59Q-115.42-11.24-114.42-10.48Q-113.42-9.71-112.92-8.48Q-112.42-7.25-112.42-5.47L-112.42-5.47Q-112.42-3.89-112.77-2.75Q-113.12-1.61-113.74-0.82Q-114.36-0.03-115.21 0.43Q-116.07 0.89-117.07 1.10L-117.07 1.10L-111.07 10.37ZM-116.28-5.28L-116.28-5.28Q-116.28-6.26-116.52-6.91Q-116.76-7.55-117.27-7.94Q-117.77-8.32-118.57-8.49Q-119.37-8.65-120.46-8.65L-120.46-8.65L-124.20-8.65L-124.20-1.72L-120.67-1.72Q-119.40-1.72-118.56-1.90Q-117.71-2.09-117.20-2.51Q-116.69-2.93-116.48-3.60Q-116.28-4.28-116.28-5.28Z"/><path fill="#ffffff" opacity="0.55" d="M-94.72 10.37L-98.02 10.37L-98.02 8.45Q-99.21 9.51-100.54 10.19Q-101.87 10.87-103.43 10.87L-103.43 10.87Q-104.72 10.87-105.72 10.48Q-106.72 10.09-107.40 9.39Q-108.07 8.69-108.43 7.73Q-108.78 6.77-108.78 5.61L-108.78 5.61Q-108.78 4.08-108.28 3.05Q-107.77 2.02-106.87 1.37Q-105.98 0.71-104.75 0.38Q-103.51 0.05-102.05-0.09L-102.05-0.09L-98.18-0.46L-98.18-1.25Q-98.18-2.09-98.43-2.64Q-98.68-3.20-99.16-3.54Q-99.63-3.88-100.33-4.01Q-101.03-4.15-101.92-4.15L-101.92-4.15Q-102.77-4.15-103.41-3.99Q-104.05-3.83-104.51-3.57Q-104.98-3.31-105.29-2.98Q-105.59-2.65-105.77-2.33L-105.77-2.33L-108.51-4.09Q-108.20-4.63-107.66-5.16Q-107.12-5.68-106.32-6.09Q-105.51-6.50-104.41-6.76Q-103.30-7.02-101.85-7.02L-101.85-7.02Q-100.08-7.02-98.74-6.73Q-97.41-6.44-96.51-5.76Q-95.62-5.09-95.17-3.95Q-94.72-2.81-94.72-1.12L-94.72-1.12L-94.72 10.37ZM-98.18 5.84L-98.18 2.15L-100.60 2.37Q-101.71 2.47-102.57 2.68Q-103.43 2.89-104.02 3.26Q-104.61 3.63-104.92 4.19Q-105.22 4.74-105.22 5.55L-105.22 5.55Q-105.22 6.89-104.51 7.44Q-103.80 8.00-102.51 8.00L-102.51 8.00Q-102.02 8.00-101.48 7.82Q-100.94 7.64-100.38 7.35Q-99.82 7.06-99.27 6.67Q-98.71 6.27-98.18 5.84L-98.18 5.84Z"/><path fill="#ffffff" opacity="0.55" d="M-75.56 10.37L-79.02 10.37L-79.02 0.73Q-79.02-0.53-79.10-1.40Q-79.18-2.28-79.45-2.83Q-79.71-3.38-80.20-3.62Q-80.68-3.86-81.49-3.86L-81.49-3.86Q-82.02-3.86-82.62-3.65Q-83.23-3.44-83.85-3.08Q-84.47-2.72-85.10-2.24Q-85.72-1.77-86.30-1.25L-86.30-1.25L-86.30 10.37L-89.77 10.37L-89.77-6.54L-86.30-6.54L-86.30-4.18Q-85.76-4.73-85.08-5.25Q-84.40-5.76-83.65-6.16Q-82.90-6.55-82.11-6.79Q-81.31-7.02-80.50-7.02L-80.50-7.02Q-79.09-7.02-78.14-6.62Q-77.18-6.21-76.61-5.43Q-76.04-4.65-75.80-3.51Q-75.56-2.38-75.56-0.91L-75.56-0.91L-75.56 10.37Z"/><path fill="#ffffff" opacity="0.55" d="M-59.98 6.08L-57.27 7.85Q-57.72 8.55-58.30 9.10Q-58.88 9.66-59.65 10.05Q-60.41 10.45-61.39 10.66Q-62.36 10.87-63.57 10.87L-63.57 10.87Q-65.70 10.87-67.19 10.22Q-68.69 9.58-69.64 8.40Q-70.59 7.22-71.03 5.60Q-71.46 3.97-71.46 1.99L-71.46 1.99Q-71.46-0.07-71.01-1.74Q-70.55-3.41-69.60-4.58Q-68.64-5.75-67.18-6.38Q-65.71-7.02-63.70-7.02L-63.70-7.02Q-61.55-7.02-59.98-6.28Q-58.40-5.54-57.49-4.02L-57.49-4.02L-60.20-2.20Q-60.77-3.07-61.59-3.53Q-62.41-3.99-63.67-3.99L-63.67-3.99Q-65.84-3.99-66.86-2.55Q-67.89-1.11-67.89 1.99L-67.89 1.99Q-67.89 3.41-67.66 4.50Q-67.44 5.60-66.93 6.34Q-66.42 7.08-65.58 7.47Q-64.75 7.85-63.54 7.85L-63.54 7.85Q-62.97 7.85-62.48 7.76Q-61.99 7.68-61.55 7.47Q-61.12 7.26-60.73 6.92Q-60.35 6.58-59.98 6.08L-59.98 6.08Z"/><path fill="#ffffff" opacity="0.55" d="M-39.56 10.37L-43.02 10.37L-43.02 0.73Q-43.02-0.54-43.11-1.42Q-43.20-2.30-43.47-2.84Q-43.73-3.38-44.22-3.62Q-44.70-3.86-45.49-3.86L-45.49-3.86Q-46.02-3.86-46.63-3.65Q-47.23-3.44-47.85-3.08Q-48.47-2.72-49.10-2.24Q-49.73-1.77-50.31-1.25L-50.31-1.25L-50.31 10.37L-53.77 10.37L-53.77-13.63L-50.31-13.63L-50.31-4.18Q-49.76-4.73-49.08-5.25Q-48.41-5.76-47.66-6.16Q-46.91-6.55-46.11-6.79Q-45.31-7.02-44.51-7.02L-44.51-7.02Q-43.11-7.02-42.15-6.62Q-41.20-6.21-40.63-5.43Q-40.06-4.65-39.81-3.51Q-39.56-2.38-39.56-0.91L-39.56-0.91L-39.56 10.37Z"/><path fill="#ffffff" opacity="0.55" d=""/><path fill="#ffffff" opacity="0.55" d="M-5.14 10.37L-8.77 10.37L-8.77-6.36L-14.50 4.49L-16.76 4.49L-22.46-6.36L-22.46 10.37L-26.06 10.37L-26.06-11.93L-21.43-11.93L-15.57-0.56L-9.65-11.93L-5.14-11.93L-5.14 10.37Z"/><path fill="#ffffff" opacity="0.55" d="M13.15 10.37L9.84 10.37L9.84 8.45Q8.65 9.51 7.32 10.19Q5.99 10.87 4.43 10.87L4.43 10.87Q3.14 10.87 2.14 10.48Q1.14 10.09 0.47 9.39Q-0.21 8.69-0.57 7.73Q-0.92 6.77-0.92 5.61L-0.92 5.61Q-0.92 4.08-0.41 3.05Q0.09 2.02 0.99 1.37Q1.88 0.71 3.12 0.38Q4.35 0.05 5.81-0.09L5.81-0.09L9.68-0.46L9.68-1.25Q9.68-2.09 9.43-2.64Q9.18-3.20 8.71-3.54Q8.23-3.88 7.53-4.01Q6.83-4.15 5.94-4.15L5.94-4.15Q5.09-4.15 4.45-3.99Q3.82-3.83 3.35-3.57Q2.88-3.31 2.58-2.98Q2.27-2.65 2.09-2.33L2.09-2.33L-0.65-4.09Q-0.34-4.63 0.20-5.16Q0.74-5.68 1.54-6.09Q2.35-6.50 3.45-6.76Q4.56-7.02 6.01-7.02L6.01-7.02Q7.78-7.02 9.12-6.73Q10.46-6.44 11.35-5.76Q12.24-5.09 12.70-3.95Q13.15-2.81 13.15-1.12L13.15-1.12L13.15 10.37ZM9.68 5.84L9.68 2.15L7.27 2.37Q6.15 2.47 5.29 2.68Q4.43 2.89 3.84 3.26Q3.25 3.63 2.95 4.19Q2.64 4.74 2.64 5.55L2.64 5.55Q2.64 6.89 3.35 7.44Q4.06 8.00 5.35 8.00L5.35 8.00Q5.85 8.00 6.39 7.82Q6.93 7.64 7.48 7.35Q8.04 7.06 8.59 6.67Q9.15 6.27 9.68 5.84L9.68 5.84Z"/><path fill="#ffffff" opacity="0.55" d="M32.31 10.37L28.84 10.37L28.84 0.73Q28.84-0.53 28.76-1.40Q28.68-2.28 28.41-2.83Q28.15-3.38 27.66-3.62Q27.18-3.86 26.38-3.86L26.38-3.86Q25.84-3.86 25.24-3.65Q24.64-3.44 24.01-3.08Q23.39-2.72 22.77-2.24Q22.14-1.77 21.56-1.25L21.56-1.25L21.56 10.37L18.09 10.37L18.09-6.54L21.56-6.54L21.56-4.18Q22.11-4.73 22.78-5.25Q23.46-5.76 24.21-6.16Q24.96-6.55 25.76-6.79Q26.55-7.02 27.36-7.02L27.36-7.02Q28.78-7.02 29.73-6.62Q30.68-6.21 31.25-5.43Q31.82-4.65 32.06-3.51Q32.31-2.38 32.31-0.91L32.31-0.91L32.31 10.37Z"/><path fill="#ffffff" opacity="0.55" d="M51.09 2.65L39.98 2.65Q39.99 3.92 40.24 4.90Q40.49 5.87 41.02 6.52Q41.55 7.18 42.40 7.51Q43.25 7.85 44.49 7.85L44.49 7.85Q45.65 7.85 46.54 7.46Q47.44 7.06 48.19 6.11L48.19 6.11L50.85 7.92Q50.37 8.64 49.77 9.19Q49.18 9.74 48.39 10.11Q47.60 10.48 46.59 10.67Q45.58 10.87 44.29 10.87L44.29 10.87Q40.25 10.87 38.32 8.63Q36.40 6.40 36.40 2.05L36.40 2.05Q36.40 0.01 36.81-1.66Q37.22-3.33 38.13-4.52Q39.04-5.71 40.51-6.37Q41.97-7.02 44.10-7.02L44.10-7.02Q45.99-7.02 47.31-6.46Q48.64-5.89 49.48-4.86Q50.32-3.83 50.71-2.38Q51.09-0.93 51.09 0.83L51.09 0.83L51.09 2.65ZM40.04 0.10L47.66 0.10Q47.66-2.01 46.77-3.11Q45.89-4.22 43.99-4.22L43.99-4.22Q43.02-4.22 42.34-3.93Q41.65-3.65 41.19-3.10Q40.73-2.56 40.46-1.75Q40.18-0.94 40.04 0.10L40.04 0.10Z"/><path fill="#ffffff" opacity="0.55" d="M69.33-6.54L69.33 10.04Q69.33 11.74 68.88 12.99Q68.43 14.25 67.46 15.08Q66.50 15.91 64.98 16.32Q63.47 16.73 61.36 16.73L61.36 16.73Q59.41 16.73 57.80 16.34Q56.20 15.94 54.94 15.22L54.94 15.22L56.07 12.41Q57.17 13.01 58.48 13.39Q59.79 13.77 61.36 13.77L61.36 13.77Q62.58 13.77 63.44 13.56Q64.29 13.35 64.83 12.90Q65.37 12.46 65.62 11.75Q65.87 11.04 65.87 10.04L65.87 10.04L65.87 8.35Q64.92 9.22 63.65 9.79Q62.37 10.37 60.83 10.37L60.83 10.37Q59.13 10.37 57.90 9.73Q56.67 9.09 55.87 7.95Q55.07 6.81 54.69 5.23Q54.32 3.65 54.32 1.75L54.32 1.75Q54.32 0.07 54.69-1.51Q55.07-3.09 55.90-4.31Q56.73-5.54 58.06-6.28Q59.39-7.02 61.29-7.02L61.29-7.02Q62.63-7.02 63.89-6.48Q65.14-5.94 66.11-5.04L66.11-5.04L66.37-6.54L69.33-6.54ZM65.87 5.39L65.87-2.27Q64.98-3.04 63.98-3.50Q62.97-3.96 61.84-3.96L61.84-3.96Q60.89-3.96 60.16-3.53Q59.42-3.10 58.92-2.35Q58.41-1.61 58.15-0.57Q57.89 0.46 57.89 1.68L57.89 1.68Q57.89 2.95 58.10 3.99Q58.31 5.03 58.76 5.77Q59.20 6.50 59.90 6.90Q60.60 7.31 61.58 7.31L61.58 7.31Q62.69 7.31 63.78 6.79Q64.87 6.27 65.87 5.39L65.87 5.39Z"/><path fill="#ffffff" opacity="0.55" d="M88.25 2.65L77.13 2.65Q77.15 3.92 77.40 4.90Q77.65 5.87 78.18 6.52Q78.71 7.18 79.56 7.51Q80.40 7.85 81.64 7.85L81.64 7.85Q82.80 7.85 83.70 7.46Q84.59 7.06 85.35 6.11L85.35 6.11L88.01 7.92Q87.53 8.64 86.93 9.19Q86.33 9.74 85.54 10.11Q84.75 10.48 83.75 10.67Q82.74 10.87 81.45 10.87L81.45 10.87Q77.41 10.87 75.48 8.63Q73.56 6.40 73.56 2.05L73.56 2.05Q73.56 0.01 73.97-1.66Q74.38-3.33 75.29-4.52Q76.20-5.71 77.66-6.37Q79.13-7.02 81.26-7.02L81.26-7.02Q83.14-7.02 84.47-6.46Q85.80-5.89 86.64-4.86Q87.48-3.83 87.86-2.38Q88.25-0.93 88.25 0.83L88.25 0.83L88.25 2.65ZM77.20 0.10L84.82 0.10Q84.82-2.01 83.93-3.11Q83.05-4.22 81.14-4.22L81.14-4.22Q80.18-4.22 79.49-3.93Q78.81-3.65 78.35-3.10Q77.89-2.56 77.62-1.75Q77.34-0.94 77.20 0.10L77.20 0.10Z"/><path fill="#ffffff" opacity="0.55" d="M102.70-6.46L102.01-3.14Q101.75-3.23 101.34-3.31Q100.93-3.39 100.50-3.39L100.50-3.39Q99.79-3.39 99.16-3.20Q98.53-3.01 97.96-2.68Q97.39-2.35 96.85-1.90Q96.32-1.44 95.81-0.94L95.81-0.94L95.81 10.37L92.34 10.37L92.34-6.54L95.81-6.54L95.81-3.96Q96.36-4.54 96.94-5.05Q97.52-5.57 98.15-5.96Q98.79-6.34 99.48-6.57Q100.17-6.79 100.95-6.79L100.95-6.79Q101.54-6.79 101.97-6.71Q102.40-6.62 102.70-6.46L102.70-6.46Z"/></g></svg>